<svg xmlns="http://www.w3.org/2000/svg" width="25" height="25" viewBox="0 0 25 25">
  <g id="important_false" transform="translate(0 -0.301)">
    <g id="Elipse_1" data-name="Elipse 1" transform="translate(0 0.301)" fill="none" stroke="#ef4d4d" stroke-width="2">
      <circle cx="12.5" cy="12.5" r="12.5" stroke="none"/>
      <circle cx="12.5" cy="12.5" r="11.5" fill="none"/>
    </g>
    <path id="Caminho_2" data-name="Caminho 2" d="M2.421,1.431a.92.92,0,0,1-.645-.23A.83.83,0,0,1,1.524.555V-8.678a.83.83,0,0,1,.252-.645.92.92,0,0,1,.645-.23.881.881,0,0,1,.635.23.85.85,0,0,1,.241.645V.555a.843.843,0,0,1-.241.656A.907.907,0,0,1,2.421,1.431Zm0-13.281a1.2,1.2,0,0,1-.853-.306,1.055,1.055,0,0,1-.328-.81,1.029,1.029,0,0,1,.328-.788,1.2,1.2,0,0,1,.853-.306,1.2,1.2,0,0,1,.853.306,1.029,1.029,0,0,1,.328.788,1.055,1.055,0,0,1-.328.81A1.2,1.2,0,0,1,2.421-11.85Z" transform="translate(9.962 18.37)" fill="#ef4d4d"/>
  </g>
</svg>
