<svg xmlns="http://www.w3.org/2000/svg" width="25" height="25" viewBox="0 0 25 25">
  <g id="important_true" transform="translate(-0.043)">
    <g id="Elipse_2" data-name="Elipse 2" transform="translate(0.043)" fill="none" stroke="#41d141" stroke-width="2">
      <circle cx="12.5" cy="12.5" r="12.5" stroke="none"/>
      <circle cx="12.5" cy="12.5" r="11.5" fill="none"/>
    </g>
    <path id="Caminho_1" data-name="Caminho 1" d="M2.427,1.508a.925.925,0,0,1-.649-.231A.834.834,0,0,1,1.526.628V-8.651A.834.834,0,0,1,1.779-9.3a.925.925,0,0,1,.649-.231.885.885,0,0,1,.638.231.854.854,0,0,1,.242.649V.628a.847.847,0,0,1-.242.66A.911.911,0,0,1,2.427,1.508Zm0-13.347a1.206,1.206,0,0,1-.858-.308,1.06,1.06,0,0,1-.33-.814,1.034,1.034,0,0,1,.33-.792,1.206,1.206,0,0,1,.858-.308,1.206,1.206,0,0,1,.858.308,1.034,1.034,0,0,1,.33.792,1.06,1.06,0,0,1-.33.814A1.206,1.206,0,0,1,2.427-11.839Z" transform="translate(10.018 18.392)" fill="#41d141"/>
  </g>
</svg>
